<svg width="32" height="33" viewBox="0 0 32 33" fill="none" xmlns="http://www.w3.org/2000/svg">
<circle cx="16.0127" cy="16.6546" r="15.2364" stroke="#20AD96"/>
<path d="M16.5373 9.31104C14.7294 9.31297 12.9962 9.96492 11.7178 11.1239C10.4395 12.2828 9.72034 13.8542 9.71821 15.4932C9.71604 16.8326 10.1986 18.1356 11.0919 19.2025C11.0919 19.2025 11.2779 19.4245 11.3083 19.4565L16.5373 25.0474L21.7688 19.4537C21.796 19.4239 21.9826 19.2025 21.9826 19.2025L21.9833 19.2008C22.8761 18.1344 23.3585 16.832 23.3564 15.4932C23.3542 13.8542 22.6351 12.2828 21.3568 11.1239C20.0784 9.96492 18.3452 9.31297 16.5373 9.31104ZM16.5373 17.7412C16.0469 17.7412 15.5674 17.6094 15.1597 17.3624C14.7519 17.1153 14.4341 16.7642 14.2464 16.3535C14.0587 15.9427 14.0096 15.4907 14.1053 15.0546C14.2009 14.6185 14.4371 14.218 14.7839 13.9036C15.1307 13.5892 15.5725 13.3751 16.0535 13.2883C16.5345 13.2016 17.0331 13.2461 17.4862 13.4162C17.9393 13.5864 18.3266 13.8745 18.5991 14.2442C18.8715 14.6139 19.017 15.0486 19.017 15.4932C19.0161 16.0892 18.7546 16.6605 18.2898 17.082C17.8249 17.5034 17.1947 17.7405 16.5373 17.7412Z" fill="#20AD96"/>
</svg>
