<svg width="32" height="33" viewBox="0 0 32 33" fill="none" xmlns="http://www.w3.org/2000/svg">
<path d="M23.419 24.9927C15.0285 25.0045 8.66022 18.5605 8.66908 10.2428C8.66908 9.69893 9.10969 9.25635 9.6526 9.25635H12.2491C12.7359 9.25635 13.15 9.61435 13.2218 10.0963C13.393 11.252 13.7292 12.3771 14.2201 13.4373L14.3214 13.6556C14.3894 13.8026 14.4041 13.9686 14.3628 14.1252C14.3215 14.2818 14.2268 14.419 14.0952 14.5133C13.2906 15.0876 12.9838 16.2433 13.6103 17.1442C14.3991 18.2785 15.3835 19.2633 16.5176 20.0525C17.4195 20.678 18.5751 20.3711 19.1485 19.5676C19.2427 19.4355 19.38 19.3405 19.5368 19.299C19.6936 19.2576 19.86 19.2722 20.0071 19.3404L20.2245 19.4407C21.2847 19.9325 22.4099 20.2688 23.5655 20.44C24.0474 20.5118 24.4054 20.9258 24.4054 21.4137V24.0092C24.4054 24.1384 24.38 24.2664 24.3305 24.3858C24.281 24.5052 24.2084 24.6136 24.117 24.705C24.0256 24.7963 23.917 24.8687 23.7976 24.9181C23.6782 24.9675 23.5502 24.9928 23.4209 24.9927H23.419Z" fill="#20AD96"/>
<circle cx="16.0127" cy="16.6001" r="15.2364" stroke="#20AD96"/>
</svg>
