<svg width="85" height="85" viewBox="0 0 85 85" fill="none" xmlns="http://www.w3.org/2000/svg">
<path d="M46 24H53" stroke="#20AD96" stroke-width="2.75" stroke-linecap="round" stroke-linejoin="round"/>
<path d="M46 33H53" stroke="#20AD96" stroke-width="2.75" stroke-linecap="round" stroke-linejoin="round"/>
<path d="M46 41H53" stroke="#20AD96" stroke-width="2.75" stroke-linecap="round" stroke-linejoin="round"/>
<path d="M23.4286 12V82M11.8571 12H54.2857C56.3317 12 58.2938 12.8194 59.7405 14.2781C61.1872 15.7367 62 17.715 62 19.7778V66.4444C62 68.5072 61.1872 70.4855 59.7405 71.9442C58.2938 73.4028 56.3317 74.2222 54.2857 74.2222H11.8571C10.8342 74.2222 9.85309 73.8125 9.12973 73.0832C8.40638 72.3539 8 71.3647 8 70.3333V15.8889C8 14.8575 8.40638 13.8683 9.12973 13.139C9.85309 12.4097 10.8342 12 11.8571 12Z" stroke="#3F3A64" stroke-width="2.75" stroke-linecap="round" stroke-linejoin="round"/>
</svg>
