<svg width="85" height="86" viewBox="0 0 85 86" fill="none" xmlns="http://www.w3.org/2000/svg">
<g clip-path="url(#clip0_1_407)">
<path d="M24.7917 25.0833C28.7037 25.0833 31.875 21.8747 31.875 17.9167C31.875 13.9586 28.7037 10.75 24.7917 10.75C20.8797 10.75 17.7083 13.9586 17.7083 17.9167C17.7083 21.8747 20.8797 25.0833 24.7917 25.0833Z" stroke="#20AD96" stroke-width="2.75" stroke-linecap="round" stroke-linejoin="round"/>
<path d="M17.7083 78.8334V60.9167L14.1667 57.3334V43C14.1667 42.0497 14.5398 41.1382 15.204 40.4662C15.8682 39.7942 16.769 39.4167 17.7083 39.4167H31.875C32.8143 39.4167 33.7151 39.7942 34.3793 40.4662C35.0435 41.1382 35.4167 42.0497 35.4167 43V57.3334L31.875 60.9167V78.8334" stroke="#20AD96" stroke-width="2.75" stroke-linecap="round" stroke-linejoin="round"/>
<path d="M60.2083 25.0833C64.1203 25.0833 67.2917 21.8747 67.2917 17.9167C67.2917 13.9586 64.1203 10.75 60.2083 10.75C56.2963 10.75 53.125 13.9586 53.125 17.9167C53.125 21.8747 56.2963 25.0833 60.2083 25.0833Z" stroke="#3F3A64" stroke-width="2.75" stroke-linecap="round" stroke-linejoin="round"/>
<path d="M53.125 78.8334V64.5H46.0417L53.125 43C53.125 42.0497 53.4981 41.1382 54.1623 40.4662C54.8265 39.7942 55.7273 39.4167 56.6667 39.4167H63.75C64.6893 39.4167 65.5901 39.7942 66.2543 40.4662C66.9185 41.1382 67.2917 42.0497 67.2917 43L74.375 64.5H67.2917V78.8334" stroke="#3F3A64" stroke-width="2.75" stroke-linecap="round" stroke-linejoin="round"/>
</g>
<defs>
<clipPath id="clip0_1_407">
<rect width="85" height="86" fill="white"/>
</clipPath>
</defs>
</svg>
