<svg width="32" height="33" viewBox="0 0 32 33" fill="none" xmlns="http://www.w3.org/2000/svg">
<path d="M22.8318 13.3982L16.5372 17.3323L10.2427 13.3982V11.8246L16.5372 15.7587L22.8318 11.8246M22.8318 10.251H10.2427C9.36934 10.251 8.66907 10.9512 8.66907 11.8246V21.2664C8.66907 21.6838 8.83486 22.084 9.12997 22.3792C9.42509 22.6743 9.82535 22.8401 10.2427 22.8401H22.8318C23.2491 22.8401 23.6494 22.6743 23.9445 22.3792C24.2396 22.084 24.4054 21.6838 24.4054 21.2664V11.8246C24.4054 11.4073 24.2396 11.007 23.9445 10.7119C23.6494 10.4168 23.2491 10.251 22.8318 10.251Z" fill="#20AD96"/>
<circle cx="16.0127" cy="16.5454" r="15.2364" stroke="#20AD96"/>
</svg>
