<svg width="279" height="95" viewBox="0 0 279 95" fill="none" xmlns="http://www.w3.org/2000/svg">
<path fill-rule="evenodd" clip-rule="evenodd" d="M39.2775 10.1434L32.927 20.2869L16.4633 20.3917C7.40846 20.4495 0 20.6497 0 20.8363C0 21.0234 1.93282 24.2638 4.29563 28.0381C6.658 31.8117 16.9526 48.2824 27.1723 64.6389C38.2127 82.309 45.9715 94.3429 46.2909 94.2909C46.5867 94.2424 50.2871 88.6897 54.515 81.9508C85.9569 31.8319 92.306 21.6054 92.306 21.082C92.306 20.5671 90.1219 20.4863 76.0227 20.479L59.739 20.4697L53.3552 10.235C49.1315 3.46315 46.7443 0 46.3001 0C45.8564 0 43.4722 3.44453 39.2775 10.1434ZM49.33 10.157C50.5497 13.6295 52.5333 19.2772 53.7383 22.7078L55.9293 28.9454L51.8686 31.5859C49.6355 33.0383 47.5704 34.318 47.2804 34.4301C46.8482 34.597 46.7524 31.7993 46.7524 19.0576C46.7524 10.4907 46.8335 3.56327 46.9328 3.66299C47.0316 3.76232 48.1107 6.68495 49.33 10.157ZM45.4624 26.8838L45.3539 34.5376L41.0194 31.7205C38.5395 30.1091 36.759 28.6931 36.8583 28.4114C36.9537 28.141 38.9045 22.6027 41.1928 16.1043L45.3539 4.28965L45.4624 11.7596C45.5219 15.868 45.5219 22.6737 45.4624 26.8838ZM39.6989 16.9727C37.1132 24.296 35.2613 28.95 34.7847 29.3256C27.7107 34.8981 22.7092 38.5417 23.2178 37.7524C23.5708 37.2053 28.3101 29.662 33.7504 20.99C39.1906 12.318 43.6881 5.22247 43.7449 5.22247C43.8017 5.22247 41.9811 10.5101 39.6989 16.9727ZM59.557 22.0947C64.8868 30.6011 69.5358 38.0066 69.8876 38.5518C70.2402 39.0966 67.4942 37.0971 63.7857 34.1089L57.0432 28.6745L53.2918 18.0534C48.9183 5.67026 48.9245 5.69005 49.4633 6.22669C49.6849 6.44748 54.2272 13.588 59.557 22.0947ZM31.2098 22.9984C30.7499 23.7163 27.3604 29.1336 23.6778 35.0359C19.9956 40.9385 16.8928 45.7664 16.7831 45.7641C16.673 45.7621 14.1556 41.8554 11.1887 37.0823C8.22164 32.3092 4.85027 26.8935 3.69622 25.0484L1.59836 21.6927H16.8221H32.0456L31.2098 22.9984ZM90.7074 21.9461C90.7074 22.2546 76.7796 44.5887 76.1505 45.2895C75.8095 45.6686 74.0452 43.1488 68.7204 34.6762C64.8795 28.5655 61.5067 23.1443 61.2247 22.6294L60.7126 21.6927H75.7102C83.959 21.6927 90.7074 21.8068 90.7074 21.9461ZM41.0036 33.0414L45.5065 35.9539L45.5285 39.9712L45.5505 43.9881L41.0565 50.9163C38.5851 54.7267 36.4547 57.8449 36.3226 57.8461C36.1909 57.8469 34.8631 55.1423 33.3723 51.8363L30.6622 45.825L33.4128 37.981C34.9256 33.6669 36.2392 30.1354 36.3322 30.1331C36.4249 30.1308 38.5271 31.4396 41.0036 33.0414ZM58.8476 37.0967L61.2433 43.8266L58.7282 50.335C57.3452 53.9146 56.0093 57.2563 55.7605 57.7607C55.3434 58.6047 54.9645 58.0704 51.0298 51.089L46.7524 43.5003V39.8893V36.2787L51.248 33.2323C53.7205 31.5564 55.9027 30.2262 56.0977 30.2759C56.2927 30.326 57.5302 33.3949 58.8476 37.0967ZM32.791 36.456C31.7197 39.4943 29.5066 45.7513 27.8729 50.3614L24.9029 58.7436L21.5104 53.3745C19.645 50.4216 17.9827 47.7721 17.8162 47.4869C17.6355 47.1761 18.1298 45.9154 19.0467 44.3481C20.4108 42.0161 21.3435 41.1349 27.5319 36.3303C31.3562 33.3615 34.5421 30.9325 34.612 30.9325C34.6816 30.9325 33.8624 33.4182 32.791 36.456ZM65.5334 36.9469C70.6257 41.0627 72.4687 42.8112 73.6289 44.6291L75.1309 46.9825L71.473 52.8258C69.4612 56.0394 67.7703 58.6198 67.7155 58.5593C67.6603 58.4991 65.5044 52.4847 62.9245 45.1933C60.3445 37.9022 58.1338 31.6654 58.0126 31.3341C57.7472 30.6112 57.0416 30.0846 65.5334 36.9469ZM50.6744 52.7257L55.0553 60.4587L56.5001 67.4432L57.945 74.4269L52.3139 83.409C49.2168 88.3494 46.5604 92.4672 46.4106 92.5603C46.2607 92.6534 43.4078 88.3521 40.0701 83.0024L34.0018 73.2757L35.3408 66.4588L36.6802 59.6423L41.4168 52.326C44.0215 48.3014 46.1847 45.0055 46.2233 45.0008C46.2615 44.9962 48.2648 48.4721 50.6744 52.7257ZM64.5053 52.9822C65.7651 56.6032 66.7187 59.8631 66.6244 60.2263C66.3854 61.1463 59.038 72.7425 58.8275 72.531C58.7336 72.4367 58.0829 69.601 57.3811 66.2295L56.1058 60.0998L58.8939 52.9403C60.4272 49.0025 61.8014 45.9197 61.9477 46.0896C62.0941 46.2596 63.2447 49.3611 64.5053 52.9822ZM32.9293 53.5615L35.6004 59.5197L34.3842 65.5791C33.7152 68.9119 33.1224 71.6789 33.0672 71.7286C33.0115 71.7779 31.3149 69.1703 29.2969 65.9342L25.6271 60.0497L27.8594 53.7206C29.0868 50.2396 30.1284 47.4392 30.1744 47.4978C30.22 47.556 31.4601 50.285 32.9293 53.5615Z" fill="white"/>
<path d="M123.381 54.1667H124.725L127.887 61.8895H127.996L131.158 54.1667H132.503V63.4703H131.449V56.402H131.358L128.451 63.4703H127.433L124.526 56.402H124.435V63.4703H123.381V54.1667ZM138.011 63.4703V54.1667H143.626V55.166H139.138V58.3095H143.335V59.3093H139.138V62.471H143.699V63.4703H138.011ZM148.906 63.4703V54.1667H150.032V62.471H154.357V63.4703H148.906ZM160.477 54.1667V63.4703H159.351V54.1667H160.477ZM173.363 54.1667V63.4703H172.273L167.203 56.1653H167.112V63.4703H165.986V54.1667H167.076L172.164 61.4895H172.255V54.1667H173.363ZM179.248 63.4703H178.067L181.483 54.1667H182.647L186.063 63.4703H184.881L182.101 55.6384H182.029L179.248 63.4703ZM179.685 59.8363H184.445V60.8356H179.685V59.8363ZM205.094 57.0741H203.968C203.901 56.7498 203.785 56.4655 203.618 56.2199C203.455 55.9749 203.255 55.7688 203.019 55.6025C202.785 55.4327 202.527 55.3053 202.242 55.2206C201.957 55.136 201.66 55.0932 201.351 55.0932C200.788 55.0932 200.278 55.2359 199.821 55.5203C199.366 55.8052 199.004 56.2244 198.735 56.7789C198.468 57.3329 198.335 58.0129 198.335 58.8183C198.335 59.6242 198.468 60.3042 198.735 60.8582C199.004 61.4122 199.366 61.8319 199.821 62.1168C200.278 62.4012 200.788 62.5434 201.351 62.5434C201.66 62.5434 201.957 62.5011 202.242 62.4164C202.527 62.3318 202.785 62.2058 203.019 62.0395C203.255 61.8698 203.455 61.6622 203.618 61.4171C203.785 61.1687 203.901 60.8838 203.968 60.563H205.094C205.01 61.0383 204.855 61.4639 204.632 61.8393C204.407 62.2152 204.129 62.5345 203.796 62.7982C203.462 63.0585 203.089 63.2568 202.673 63.3931C202.261 63.5294 201.821 63.5978 201.351 63.5978C200.558 63.5978 199.853 63.4039 199.235 63.0162C198.617 62.6285 198.13 62.0774 197.776 61.3625C197.422 60.6476 197.245 59.7999 197.245 58.8183C197.245 57.8372 197.422 56.9895 197.776 56.2745C198.13 55.5596 198.617 55.0086 199.235 54.6209C199.853 54.2332 200.558 54.0393 201.351 54.0393C201.821 54.0393 202.261 54.1077 202.673 54.244C203.089 54.3803 203.462 54.58 203.796 54.8438C204.129 55.104 204.407 55.4219 204.632 55.7978C204.855 56.1702 205.01 56.5953 205.094 57.0741ZM210.546 63.4703H209.365L212.781 54.1667H213.944L217.361 63.4703H216.179L213.399 55.6384H213.326L210.546 63.4703ZM210.982 59.8363H215.743V60.8356H210.982V59.8363ZM227.147 56.4925C227.092 56.0325 226.871 55.6748 226.484 55.4204C226.096 55.166 225.621 55.0391 225.057 55.0391C224.645 55.0391 224.285 55.1055 223.976 55.2388C223.67 55.3722 223.431 55.5552 223.258 55.7884C223.089 56.0216 223.003 56.2868 223.003 56.5835C223.003 56.832 223.063 57.0455 223.181 57.2241C223.302 57.3998 223.457 57.5464 223.644 57.6645C223.832 57.7796 224.029 57.8751 224.235 57.9509C224.441 58.0237 224.63 58.0827 224.803 58.128L225.747 58.3824C225.99 58.4458 226.259 58.5339 226.556 58.6461C226.856 58.7578 227.142 58.9108 227.415 59.1046C227.69 59.2956 227.917 59.5406 228.096 59.8407C228.275 60.1403 228.364 60.5084 228.364 60.9443C228.364 61.4471 228.232 61.9018 227.969 62.3072C227.709 62.7131 227.327 63.0359 226.824 63.275C226.325 63.5141 225.717 63.6337 225.003 63.6337C224.336 63.6337 223.759 63.5264 223.272 63.3114C222.787 63.0964 222.406 62.7963 222.127 62.412C221.851 62.0272 221.695 61.5805 221.659 61.0717H222.822C222.852 61.423 222.971 61.7138 223.176 61.9441C223.385 62.1709 223.649 62.3407 223.967 62.4528C224.288 62.5616 224.633 62.6162 225.003 62.6162C225.433 62.6162 225.819 62.5468 226.161 62.4071C226.503 62.2649 226.774 62.0681 226.974 61.8167C227.174 61.5623 227.274 61.2656 227.274 60.9266C227.274 60.6176 227.188 60.3662 227.015 60.1723C226.842 59.9785 226.615 59.821 226.333 59.7C226.052 59.5785 225.747 59.4727 225.42 59.3817L224.276 59.0549C223.549 58.8458 222.973 58.5477 222.549 58.16C222.125 57.7723 221.913 57.265 221.913 56.6382C221.913 56.1171 222.054 55.663 222.336 55.2753C222.621 54.8846 223.002 54.5815 223.481 54.3665C223.962 54.1485 224.5 54.0393 225.093 54.0393C225.693 54.0393 226.226 54.1471 226.692 54.3621C227.159 54.5741 227.528 54.8649 227.801 55.2344C228.076 55.6039 228.222 56.0231 228.237 56.4925H227.147ZM232.957 55.166V54.1667H239.935V55.166H237.009V63.4703H235.883V55.166H232.957ZM244.923 63.4703V54.1667H248.066C248.793 54.1667 249.39 54.2907 249.856 54.5392C250.322 54.7847 250.668 55.1222 250.892 55.5523C251.116 55.9823 251.228 56.4714 251.228 57.0195C251.228 57.5676 251.116 58.0537 250.892 58.4778C250.668 58.9019 250.324 59.235 249.861 59.4771C249.397 59.7167 248.805 59.8363 248.085 59.8363H245.54V58.8183H248.048C248.545 58.8183 248.945 58.746 249.247 58.6003C249.553 58.4552 249.774 58.249 249.911 57.9828C250.05 57.7132 250.12 57.3919 250.12 57.0195C250.12 56.647 250.05 56.3213 249.911 56.0428C249.771 55.7643 249.549 55.5493 249.243 55.3978C248.937 55.2433 248.533 55.166 248.03 55.166H246.049V63.4703H244.923ZM249.302 59.2911L251.592 63.4703H250.283L248.03 59.2911H249.302ZM264.205 58.8183C264.205 59.7999 264.028 60.6476 263.673 61.3625C263.319 62.0774 262.833 62.6285 262.215 63.0162C261.597 63.4039 260.891 63.5978 260.098 63.5978C259.305 63.5978 258.599 63.4039 257.981 63.0162C257.363 62.6285 256.877 62.0774 256.523 61.3625C256.169 60.6476 255.991 59.7999 255.991 58.8183C255.991 57.8372 256.169 56.9895 256.523 56.2745C256.877 55.5596 257.363 55.0086 257.981 54.6209C258.599 54.2332 259.305 54.0393 260.098 54.0393C260.891 54.0393 261.597 54.2332 262.215 54.6209C262.833 55.0086 263.319 55.5596 263.673 56.2745C264.028 56.9895 264.205 57.8372 264.205 58.8183ZM263.114 58.8183C263.114 58.0129 262.98 57.3329 262.71 56.7789C262.444 56.2244 262.082 55.8052 261.625 55.5203C261.17 55.2359 260.661 55.0932 260.098 55.0932C259.534 55.0932 259.024 55.2359 258.567 55.5203C258.113 55.8052 257.751 56.2244 257.481 56.7789C257.215 57.3329 257.082 58.0129 257.082 58.8183C257.082 59.6242 257.215 60.3042 257.481 60.8582C257.751 61.4122 258.113 61.8319 258.567 62.1168C259.024 62.4012 259.534 62.5434 260.098 62.5434C260.661 62.5434 261.17 62.4012 261.625 62.1168C262.082 61.8319 262.444 61.4122 262.71 60.8582C262.98 60.3042 263.114 59.6242 263.114 58.8183Z" fill="white"/>
<path d="M117.398 34.6773H115.307C115.247 34.3345 115.137 34.0307 114.977 33.766C114.817 33.4976 114.617 33.2703 114.379 33.0839C114.14 32.8975 113.868 32.7577 113.562 32.6645C113.26 32.5677 112.934 32.5192 112.584 32.5192C111.961 32.5192 111.41 32.6758 110.929 32.9888C110.448 33.2982 110.072 33.753 109.8 34.3531C109.527 34.9495 109.391 35.6782 109.391 36.5392C109.391 37.4151 109.527 38.1532 109.8 38.7533C110.075 39.3497 110.452 39.8007 110.929 40.1063C111.41 40.4083 111.96 40.5592 112.578 40.5592C112.921 40.5592 113.242 40.5145 113.54 40.4251C113.842 40.3319 114.112 40.1958 114.351 40.0169C114.593 39.838 114.796 39.618 114.96 39.3571C115.128 39.0962 115.243 38.798 115.307 38.4625L117.398 38.4738C117.32 39.0179 117.15 39.5286 116.889 40.0057C116.632 40.4828 116.295 40.904 115.877 41.2693C115.46 41.6308 114.971 41.9142 114.412 42.1191C113.853 42.3204 113.233 42.4211 112.55 42.4211C111.544 42.4211 110.646 42.1881 109.856 41.7222C109.065 41.2563 108.443 40.5834 107.988 39.7038C107.533 38.8241 107.306 37.7692 107.306 36.5392C107.306 35.3055 107.535 34.2506 107.994 33.3746C108.452 32.4949 109.076 31.8222 109.867 31.3562C110.657 30.8903 111.551 30.6573 112.55 30.6573C113.188 30.6573 113.78 30.7468 114.328 30.9257C114.876 31.1046 115.365 31.3674 115.793 31.7141C116.222 32.057 116.574 32.4782 116.85 32.9777C117.13 33.4734 117.312 34.04 117.398 34.6773ZM141.999 36.5392C141.999 37.773 141.768 38.8297 141.306 39.7094C140.847 40.5853 140.221 41.2563 139.427 41.7222C138.637 42.1881 137.74 42.4211 136.738 42.4211C135.735 42.4211 134.837 42.1881 134.043 41.7222C133.253 41.2525 132.626 40.5797 132.164 39.7038C131.706 38.8241 131.476 37.7692 131.476 36.5392C131.476 35.3055 131.706 34.2506 132.164 33.3746C132.626 32.4949 133.253 31.8222 134.043 31.3562C134.837 30.8903 135.735 30.6573 136.738 30.6573C137.74 30.6573 138.637 30.8903 139.427 31.3562C140.221 31.8222 140.847 32.4949 141.306 33.3746C141.768 34.2506 141.999 35.3055 141.999 36.5392ZM139.913 36.5392C139.913 35.6707 139.777 34.9383 139.505 34.3419C139.237 33.7418 138.864 33.2889 138.387 32.9833C137.91 32.6739 137.36 32.5192 136.738 32.5192C136.115 32.5192 135.565 32.6739 135.088 32.9833C134.611 33.2889 134.237 33.7418 133.965 34.3419C133.696 34.9383 133.562 35.6707 133.562 36.5392C133.562 37.4077 133.696 38.142 133.965 38.7421C134.237 39.3385 134.611 39.7914 135.088 40.1008C135.565 40.4064 136.115 40.5592 136.738 40.5592C137.36 40.5592 137.91 40.4064 138.387 40.1008C138.864 39.7914 139.237 39.3385 139.505 38.7421C139.777 38.142 139.913 37.4077 139.913 36.5392ZM157.285 42.2645H155.071L159.102 30.8139H161.663L165.7 42.2645H163.486L160.427 33.1622H160.338L157.285 42.2645ZM157.358 37.7748H163.396V39.441H157.358V37.7748ZM188.941 34.6773H186.85C186.79 34.3345 186.68 34.0307 186.52 33.766C186.36 33.4976 186.16 33.2703 185.922 33.0839C185.683 32.8975 185.411 32.7577 185.105 32.6645C184.804 32.5677 184.477 32.5192 184.127 32.5192C183.505 32.5192 182.953 32.6758 182.472 32.9888C181.991 33.2982 181.615 33.753 181.343 34.3531C181.071 34.9495 180.934 35.6782 180.934 36.5392C180.934 37.4151 181.071 38.1532 181.343 38.7533C181.618 39.3497 181.995 39.8007 182.472 40.1063C182.953 40.4083 183.503 40.5592 184.121 40.5592C184.464 40.5592 184.785 40.5145 185.083 40.4251C185.385 40.3319 185.655 40.1958 185.894 40.0169C186.136 39.838 186.339 39.618 186.503 39.3571C186.671 39.0962 186.786 38.798 186.85 38.4625L188.941 38.4738C188.863 39.0179 188.693 39.5286 188.432 40.0057C188.175 40.4828 187.837 40.904 187.42 41.2693C187.003 41.6308 186.514 41.9142 185.955 42.1191C185.396 42.3204 184.776 42.4211 184.094 42.4211C183.087 42.4211 182.189 42.1881 181.398 41.7222C180.608 41.2563 179.986 40.5834 179.531 39.7038C179.076 38.8241 178.849 37.7692 178.849 36.5392C178.849 35.3055 179.078 34.2506 179.537 33.3746C179.995 32.4949 180.619 31.8222 181.41 31.3562C182.2 30.8903 183.094 30.6573 184.094 30.6573C184.731 30.6573 185.324 30.7468 185.871 30.9257C186.419 31.1046 186.907 31.3674 187.336 31.7141C187.765 32.057 188.117 32.4782 188.393 32.9777C188.672 33.4734 188.855 34.04 188.941 34.6773ZM203.31 42.2645V30.8139H205.385V35.6614H210.691V30.8139H212.77V42.2645H210.691V37.4002H205.385V42.2645H203.31ZM229.57 30.8139V42.2645H227.496V30.8139H229.57ZM253.696 30.8139V42.2645H251.851L246.456 34.4649H246.361V42.2645H244.286V30.8139H246.143L251.533 38.6191H251.633V30.8139H253.696ZM276.097 34.4705C276.004 34.1686 275.875 33.8983 275.711 33.6598C275.551 33.4175 275.357 33.2106 275.13 33.0392C274.907 32.8677 274.649 32.7391 274.358 32.6534C274.068 32.5639 273.751 32.5192 273.408 32.5192C272.793 32.5192 272.245 32.6739 271.764 32.9833C271.283 33.2927 270.905 33.7474 270.629 34.3475C270.357 34.9439 270.221 35.6707 270.221 36.528C270.221 37.3928 270.357 38.1252 270.629 38.7253C270.901 39.3254 271.279 39.782 271.764 40.0952C272.249 40.4045 272.812 40.5592 273.453 40.5592C274.034 40.5592 274.538 40.4474 274.962 40.2238C275.391 40.0001 275.721 39.6833 275.952 39.2733C276.183 38.8595 276.298 38.375 276.298 37.8196L276.768 37.8922H273.66V36.2708H278.306V37.6462C278.306 38.6266 278.097 39.4745 277.68 40.1902C277.262 40.9059 276.688 41.4575 275.957 41.8452C275.227 42.2291 274.388 42.4211 273.441 42.4211C272.386 42.4211 271.46 42.1844 270.663 41.711C269.869 41.2339 269.248 40.5574 268.801 39.6814C268.357 38.8017 268.135 37.7581 268.135 36.5504C268.135 35.626 268.266 34.8003 268.527 34.0735C268.792 33.3467 269.161 32.7298 269.634 32.2229C270.107 31.7122 270.663 31.3246 271.3 31.0599C271.938 30.7915 272.631 30.6573 273.38 30.6573C274.014 30.6573 274.604 30.7505 275.153 30.9369C275.7 31.1196 276.187 31.3805 276.612 31.7197C277.04 32.0589 277.393 32.4614 277.668 32.9273C277.944 33.3933 278.125 33.9077 278.211 34.4705H276.097Z" fill="white"/>
</svg>
